<mxfile host="Electron" modified="2024-02-07T05:00:41.301Z" agent="Mozilla/5.0 (X11; Linux x86_64) AppleWebKit/537.36 (KHTML, like Gecko) draw.io/22.1.21 Chrome/120.0.6099.109 Electron/28.1.0 Safari/537.36" etag="2L6hFYGE9TAjH5eX_5xC" version="22.1.21" type="device">
  <diagram name="PÃ¡gina-1" id="O7MBfEGZBoNdr1yW5oVu">
    <mxGraphModel dx="1429" dy="907" grid="1" gridSize="10" guides="1" tooltips="1" connect="1" arrows="1" fold="1" page="1" pageScale="1" pageWidth="827" pageHeight="1169" math="0" shadow="0">
      <root>
        <mxCell id="0" />
        <mxCell id="1" parent="0" />
        <mxCell id="weasKUzhQbfyZyFGf2sW-6" style="edgeStyle=orthogonalEdgeStyle;shape=connector;curved=0;rounded=1;orthogonalLoop=1;jettySize=auto;html=1;labelBackgroundColor=default;strokeColor=#666666;strokeWidth=3;align=center;verticalAlign=middle;fontFamily=Helvetica;fontSize=12;fontColor=#666666;endArrow=openThin;endFill=0;fillColor=#FAE5C7;entryX=0;entryY=0.5;entryDx=0;entryDy=0;" parent="1" source="weasKUzhQbfyZyFGf2sW-2" target="weasKUzhQbfyZyFGf2sW-5" edge="1">
          <mxGeometry relative="1" as="geometry" />
        </mxCell>
        <mxCell id="weasKUzhQbfyZyFGf2sW-2" value="Start" style="ellipse;whiteSpace=wrap;html=1;aspect=fixed;strokeColor=#666666;fontColor=#666666;fillColor=#FFFFFF;strokeWidth=3;fontSize=12;" parent="1" vertex="1">
          <mxGeometry x="29.999999999999986" y="233.25" width="50" height="50" as="geometry" />
        </mxCell>
        <mxCell id="weasKUzhQbfyZyFGf2sW-9" style="edgeStyle=orthogonalEdgeStyle;shape=connector;curved=0;rounded=1;orthogonalLoop=1;jettySize=auto;html=1;labelBackgroundColor=default;strokeColor=#666666;strokeWidth=3;align=center;verticalAlign=middle;fontFamily=Helvetica;fontSize=12;fontColor=#666666;endArrow=openThin;endFill=0;fillColor=#FAE5C7;" parent="1" source="weasKUzhQbfyZyFGf2sW-5" target="weasKUzhQbfyZyFGf2sW-8" edge="1">
          <mxGeometry relative="1" as="geometry" />
        </mxCell>
        <mxCell id="weasKUzhQbfyZyFGf2sW-8" value="End" style="ellipse;whiteSpace=wrap;html=1;aspect=fixed;strokeColor=#666666;fontColor=#666666;fillColor=#FFFFFF;strokeWidth=3;fontSize=12;" parent="1" vertex="1">
          <mxGeometry x="109.50999999999999" y="260" width="50" height="50" as="geometry" />
        </mxCell>
        <mxCell id="weasKUzhQbfyZyFGf2sW-16" style="edgeStyle=orthogonalEdgeStyle;shape=connector;curved=0;rounded=1;orthogonalLoop=1;jettySize=auto;html=1;exitX=0.5;exitY=1;exitDx=0;exitDy=0;labelBackgroundColor=default;strokeColor=#666666;strokeWidth=3;align=center;verticalAlign=middle;fontFamily=Helvetica;fontSize=12;fontColor=#666666;endArrow=openThin;endFill=0;fillColor=#FAE5C7;" parent="1" source="weasKUzhQbfyZyFGf2sW-1" target="weasKUzhQbfyZyFGf2sW-15" edge="1">
          <mxGeometry relative="1" as="geometry" />
        </mxCell>
        <mxCell id="weasKUzhQbfyZyFGf2sW-1" value="Execute problem identification process" style="rounded=1;whiteSpace=wrap;html=1;strokeColor=#666666;fontColor=#666666;fillColor=#FFFFFF;strokeWidth=3;fontSize=12;" parent="1" vertex="1">
          <mxGeometry x="233" y="191.25" width="160" height="40" as="geometry" />
        </mxCell>
        <mxCell id="weasKUzhQbfyZyFGf2sW-5" value="Application &lt;br style=&quot;font-size: 12px;&quot;&gt;Status?" style="rhombus;whiteSpace=wrap;html=1;rounded=0;strokeColor=#666666;strokeWidth=3;align=center;verticalAlign=middle;fontFamily=Helvetica;fontSize=12;fontColor=#666666;fillColor=#FFFFFF;spacingTop=2;" parent="1" vertex="1">
          <mxGeometry x="80" y="180" width="109.03" height="62.5" as="geometry" />
        </mxCell>
        <mxCell id="weasKUzhQbfyZyFGf2sW-7" style="edgeStyle=orthogonalEdgeStyle;shape=connector;curved=0;rounded=1;orthogonalLoop=1;jettySize=auto;html=1;labelBackgroundColor=default;strokeColor=#666666;strokeWidth=3;align=center;verticalAlign=middle;fontFamily=Helvetica;fontSize=12;fontColor=#666666;endArrow=openThin;endFill=0;fillColor=#FAE5C7;" parent="1" source="weasKUzhQbfyZyFGf2sW-5" target="weasKUzhQbfyZyFGf2sW-1" edge="1">
          <mxGeometry relative="1" as="geometry" />
        </mxCell>
        <mxCell id="weasKUzhQbfyZyFGf2sW-11" value="Coherent" style="text;html=1;strokeColor=none;fillColor=none;align=center;verticalAlign=middle;whiteSpace=wrap;rounded=0;fontSize=12;fontFamily=Helvetica;fontColor=#666666;" parent="1" vertex="1">
          <mxGeometry x="148.75" y="236" width="36.25" height="20" as="geometry" />
        </mxCell>
        <mxCell id="weasKUzhQbfyZyFGf2sW-13" value="Not &lt;br style=&quot;font-size: 12px;&quot;&gt;coherent" style="text;html=1;strokeColor=none;fillColor=none;align=left;verticalAlign=middle;whiteSpace=wrap;rounded=0;fontSize=12;fontFamily=Helvetica;fontColor=#666666;" parent="1" vertex="1">
          <mxGeometry x="178.28000000000003" y="182" width="73.91" height="20" as="geometry" />
        </mxCell>
        <mxCell id="weasKUzhQbfyZyFGf2sW-18" style="edgeStyle=orthogonalEdgeStyle;shape=connector;curved=0;rounded=1;orthogonalLoop=1;jettySize=auto;html=1;labelBackgroundColor=default;strokeColor=#666666;strokeWidth=3;align=center;verticalAlign=middle;fontFamily=Helvetica;fontSize=12;fontColor=#666666;endArrow=openThin;endFill=0;fillColor=#FAE5C7;" parent="1" source="weasKUzhQbfyZyFGf2sW-15" target="weasKUzhQbfyZyFGf2sW-17" edge="1">
          <mxGeometry relative="1" as="geometry" />
        </mxCell>
        <mxCell id="weasKUzhQbfyZyFGf2sW-15" value="Get actions to take with the location and data requirement info" style="rounded=1;whiteSpace=wrap;html=1;strokeColor=#666666;fontColor=#666666;fillColor=#FFFFFF;strokeWidth=3;fontSize=12;" parent="1" vertex="1">
          <mxGeometry x="233" y="254" width="160" height="50" as="geometry" />
        </mxCell>
        <mxCell id="Puos1YkfTBZv_9QDnM-f-1" style="edgeStyle=orthogonalEdgeStyle;shape=connector;curved=0;rounded=1;orthogonalLoop=1;jettySize=auto;html=1;exitX=0;exitY=0.5;exitDx=0;exitDy=0;entryX=0.5;entryY=1;entryDx=0;entryDy=0;labelBackgroundColor=default;strokeColor=#666666;strokeWidth=3;align=center;verticalAlign=middle;fontFamily=Helvetica;fontSize=12;fontColor=#666666;endArrow=openThin;endFill=0;fillColor=#FAE5C7;" parent="1" source="weasKUzhQbfyZyFGf2sW-17" target="weasKUzhQbfyZyFGf2sW-8" edge="1">
          <mxGeometry relative="1" as="geometry" />
        </mxCell>
        <mxCell id="Puos1YkfTBZv_9QDnM-f-4" style="edgeStyle=orthogonalEdgeStyle;shape=connector;curved=0;rounded=1;orthogonalLoop=1;jettySize=auto;html=1;labelBackgroundColor=default;strokeColor=#666666;strokeWidth=3;align=center;verticalAlign=middle;fontFamily=Helvetica;fontSize=12;fontColor=#666666;endArrow=openThin;endFill=0;fillColor=#FAE5C7;entryX=0;entryY=0.5;entryDx=0;entryDy=0;exitX=1;exitY=0.5;exitDx=0;exitDy=0;" parent="1" source="weasKUzhQbfyZyFGf2sW-17" target="eJLsP098SzrVyEOCUtsY-1" edge="1">
          <mxGeometry relative="1" as="geometry">
            <Array as="points">
              <mxPoint x="407" y="356" />
              <mxPoint x="407" y="224" />
            </Array>
            <mxPoint x="446.01" y="285" as="targetPoint" />
          </mxGeometry>
        </mxCell>
        <mxCell id="weasKUzhQbfyZyFGf2sW-17" value="Actions left to execute?" style="rhombus;whiteSpace=wrap;html=1;rounded=0;strokeColor=#666666;strokeWidth=3;align=center;verticalAlign=middle;fontFamily=Helvetica;fontSize=12;fontColor=#666666;fillColor=#FFFFFF;spacingTop=7;" parent="1" vertex="1">
          <mxGeometry x="258.48999999999995" y="324.5" width="109.03" height="62.5" as="geometry" />
        </mxCell>
        <mxCell id="weasKUzhQbfyZyFGf2sW-19" value="No" style="text;html=1;strokeColor=none;fillColor=none;align=center;verticalAlign=middle;whiteSpace=wrap;rounded=0;fontSize=12;fontFamily=Helvetica;fontColor=#666666;" parent="1" vertex="1">
          <mxGeometry x="238.99" y="337.5" width="23.5" height="18.5" as="geometry" />
        </mxCell>
        <mxCell id="weasKUzhQbfyZyFGf2sW-21" value="Yes" style="text;html=1;strokeColor=none;fillColor=none;align=center;verticalAlign=middle;whiteSpace=wrap;rounded=0;fontSize=12;fontFamily=Helvetica;fontColor=#666666;" parent="1" vertex="1">
          <mxGeometry x="345.00000000000006" y="330" width="36.25" height="20" as="geometry" />
        </mxCell>
        <mxCell id="eJLsP098SzrVyEOCUtsY-8" style="edgeStyle=orthogonalEdgeStyle;shape=connector;curved=0;rounded=1;orthogonalLoop=1;jettySize=auto;html=1;labelBackgroundColor=default;strokeColor=#666666;strokeWidth=3;align=center;verticalAlign=middle;fontFamily=Helvetica;fontSize=12;fontColor=#666666;endArrow=openThin;endFill=0;fillColor=#FAE5C7;" parent="1" source="Puos1YkfTBZv_9QDnM-f-8" target="eJLsP098SzrVyEOCUtsY-7" edge="1">
          <mxGeometry relative="1" as="geometry" />
        </mxCell>
        <mxCell id="Puos1YkfTBZv_9QDnM-f-8" value="Build corresponding order from &lt;br&gt;location and data&lt;br&gt;requirement info" style="rounded=1;whiteSpace=wrap;html=1;strokeColor=#666666;fontColor=#666666;fillColor=#FFFFFF;strokeWidth=3;fontSize=12;" parent="1" vertex="1">
          <mxGeometry x="590" y="180" width="120" height="88" as="geometry" />
        </mxCell>
        <mxCell id="eJLsP098SzrVyEOCUtsY-2" style="edgeStyle=orthogonalEdgeStyle;shape=connector;curved=0;rounded=1;orthogonalLoop=1;jettySize=auto;html=1;entryX=0.5;entryY=1;entryDx=0;entryDy=0;labelBackgroundColor=default;strokeColor=#666666;strokeWidth=3;align=center;verticalAlign=middle;fontFamily=Helvetica;fontSize=12;fontColor=#666666;endArrow=openThin;endFill=0;fillColor=#FAE5C7;exitX=0.5;exitY=1;exitDx=0;exitDy=0;" parent="1" source="eJLsP098SzrVyEOCUtsY-3" target="weasKUzhQbfyZyFGf2sW-17" edge="1">
          <mxGeometry relative="1" as="geometry">
            <Array as="points">
              <mxPoint x="509" y="404" />
              <mxPoint x="313" y="404" />
            </Array>
          </mxGeometry>
        </mxCell>
        <mxCell id="eJLsP098SzrVyEOCUtsY-5" style="edgeStyle=orthogonalEdgeStyle;shape=connector;curved=0;rounded=1;orthogonalLoop=1;jettySize=auto;html=1;labelBackgroundColor=default;strokeColor=#666666;strokeWidth=3;align=center;verticalAlign=middle;fontFamily=Helvetica;fontSize=12;fontColor=#666666;endArrow=openThin;endFill=0;fillColor=#FAE5C7;" parent="1" source="eJLsP098SzrVyEOCUtsY-1" target="Puos1YkfTBZv_9QDnM-f-8" edge="1">
          <mxGeometry relative="1" as="geometry" />
        </mxCell>
        <mxCell id="eJLsP098SzrVyEOCUtsY-1" value="Directive for&lt;br style=&quot;font-size: 12px;&quot;&gt;&amp;nbsp;location &lt;br style=&quot;font-size: 12px;&quot;&gt;and Action?" style="rhombus;whiteSpace=wrap;html=1;rounded=0;strokeColor=#666666;strokeWidth=3;align=center;verticalAlign=middle;fontFamily=Helvetica;fontSize=12;fontColor=#666666;fillColor=#FFFFFF;spacingTop=0;" parent="1" vertex="1">
          <mxGeometry x="446.34000000000003" y="185.87" width="125.95" height="76.25" as="geometry" />
        </mxCell>
        <mxCell id="eJLsP098SzrVyEOCUtsY-4" value="" style="edgeStyle=orthogonalEdgeStyle;shape=connector;curved=0;rounded=1;orthogonalLoop=1;jettySize=auto;html=1;labelBackgroundColor=default;strokeColor=#666666;strokeWidth=3;align=center;verticalAlign=middle;fontFamily=Helvetica;fontSize=12;fontColor=#666666;endArrow=openThin;endFill=0;fillColor=#FAE5C7;exitX=0.5;exitY=1;exitDx=0;exitDy=0;" parent="1" source="eJLsP098SzrVyEOCUtsY-1" target="eJLsP098SzrVyEOCUtsY-3" edge="1">
          <mxGeometry relative="1" as="geometry">
            <mxPoint x="509" y="323" as="sourcePoint" />
            <mxPoint x="313" y="395" as="targetPoint" />
          </mxGeometry>
        </mxCell>
        <mxCell id="eJLsP098SzrVyEOCUtsY-3" value="Report missing directive" style="rounded=1;whiteSpace=wrap;html=1;strokeColor=#666666;fontColor=#666666;fillColor=#FFFFFF;strokeWidth=3;fontSize=12;" parent="1" vertex="1">
          <mxGeometry x="459.32" y="320" width="100" height="40" as="geometry" />
        </mxCell>
        <mxCell id="eJLsP098SzrVyEOCUtsY-10" value="" style="edgeStyle=orthogonalEdgeStyle;shape=connector;curved=0;rounded=1;orthogonalLoop=1;jettySize=auto;html=1;labelBackgroundColor=default;strokeColor=#666666;strokeWidth=3;align=center;verticalAlign=middle;fontFamily=Helvetica;fontSize=12;fontColor=#666666;endArrow=openThin;endFill=0;fillColor=#FAE5C7;" parent="1" source="eJLsP098SzrVyEOCUtsY-7" target="eJLsP098SzrVyEOCUtsY-9" edge="1">
          <mxGeometry relative="1" as="geometry" />
        </mxCell>
        <mxCell id="eJLsP098SzrVyEOCUtsY-7" value="Add action to things tried in location for data requirement" style="rounded=1;whiteSpace=wrap;html=1;strokeColor=#666666;fontColor=#666666;fillColor=#FFFFFF;strokeWidth=3;fontSize=12;spacingLeft=3;spacingRight=3;" parent="1" vertex="1">
          <mxGeometry x="590" y="294.38" width="120" height="65.62" as="geometry" />
        </mxCell>
        <mxCell id="eJLsP098SzrVyEOCUtsY-11" style="edgeStyle=orthogonalEdgeStyle;shape=connector;curved=0;rounded=1;orthogonalLoop=1;jettySize=auto;html=1;labelBackgroundColor=default;strokeColor=#666666;strokeWidth=3;align=center;verticalAlign=middle;fontFamily=Helvetica;fontSize=12;fontColor=#666666;endArrow=openThin;endFill=0;fillColor=#FAE5C7;" parent="1" source="eJLsP098SzrVyEOCUtsY-9" target="weasKUzhQbfyZyFGf2sW-17" edge="1">
          <mxGeometry relative="1" as="geometry">
            <Array as="points">
              <mxPoint x="313" y="404" />
            </Array>
          </mxGeometry>
        </mxCell>
        <mxCell id="eJLsP098SzrVyEOCUtsY-9" value="Send Order to &lt;br style=&quot;font-size: 12px;&quot;&gt;executor service" style="rounded=1;whiteSpace=wrap;html=1;strokeColor=#666666;fontColor=#666666;fillColor=#FFFFFF;strokeWidth=3;fontSize=12;" parent="1" vertex="1">
          <mxGeometry x="590" y="381.5" width="120" height="45.62" as="geometry" />
        </mxCell>
        <mxCell id="eJLsP098SzrVyEOCUtsY-15" value="Yes" style="text;html=1;strokeColor=none;fillColor=none;align=center;verticalAlign=middle;whiteSpace=wrap;rounded=0;fontSize=12;fontFamily=Helvetica;fontColor=#666666;" parent="1" vertex="1">
          <mxGeometry x="551" y="199.59" width="36.25" height="20" as="geometry" />
        </mxCell>
        <mxCell id="eJLsP098SzrVyEOCUtsY-16" value="No" style="text;html=1;strokeColor=none;fillColor=none;align=center;verticalAlign=middle;whiteSpace=wrap;rounded=0;fontSize=12;fontFamily=Helvetica;fontColor=#666666;" parent="1" vertex="1">
          <mxGeometry x="474" y="251.00000000000003" width="23.5" height="18.5" as="geometry" />
        </mxCell>
      </root>
    </mxGraphModel>
  </diagram>
</mxfile>
